# File created by Blade
# Date/Time:  Tue Jan 27 18:50:13 2015
#---------------------------------------------------------
:version 1.10
:name HOM
:units
  mass 1.0
  length 1.000000
  angle deg
:documentation
     Acclaim Skeleton File
:root
   axis xyz
   order TX TY TZ RX RY RZ
   position 0.000000 0.000000 0.000000
   orientation 0 0 0
:bonedata
   begin
      id 1
      name Spine_dum
      direction 0.000000 1.000000 0.000000
      length 5.195262
      axis 0.0 0.0 0.0 xyz
   end
   begin
      id 2
      name LeftUpLeg_dum
      direction 1.000000 0.000000 0.000000
      length 3.351363
      axis 0.0 0.0 0.0 xyz
   end
   begin
      id 3
      name RightUpLeg_dum
      direction -1.000000 0.000000 0.000000
      length 3.351363
      axis 0.0 0.0 0.0 xyz
   end
   begin
      id 4
      name Spine
      direction 0.000000 1.000000 0.000000
      length 0.000000
      axis 0.0 0.0 0.0 xyz
      dof rx ry rz
   end
   begin
      id 5
      name Spine_dum1
      direction 0.000000 1.000000 0.000000
      length 15.653875
      axis 0.0 0.0 0.0 xyz
   end
   begin
      id 6
      name Spine_dum2
      direction 0.000000 1.000000 0.000000
      length 10.329768
      axis 0.0 0.0 0.0 xyz
   end
   begin
      id 7
      name Spine_dum3
      direction 0.000000 1.000000 0.000000
      length 10.329768
      axis 0.0 0.0 0.0 xyz
   end
   begin
      id 8
      name Head
      direction 0.000000 1.000000 0.000000
      length 4.527550
      axis 0.0 0.0 0.0 xyz
      dof rx ry rz
   end
   begin
      id 9
      name LeftShoulder
      direction 1.000000 0.000000 0.000000
      length 6.996006
      axis 0.0 0.0 -90.0 xyz
      dof rx ry rz
   end
   begin
      id 10
      name LeftArm
      direction 1.000000 0.000000 0.000000
      length 10.209302
      axis 0.0 0.0 -90.0 xyz
      dof rx ry rz
   end
   begin
      id 11
      name LeftForeArm
      direction 1.000000 0.000000 0.000000
      length 8.563163
      axis 0.0 0.0 -90.0 xyz
      dof ry rz rx
   end
   begin
      id 12
      name LeftHand
      direction 0.000000 0.000000 0.000000
      length 0.000000
      axis 0.0 0.0 -90.0 xyz
      dof rx ry rz
   end
   begin
      id 13
      name LeftHand_dum1
      direction 0.000000 0.000000 0.000000
      length 0.000000
      axis 0.0 0.0 -90.0 xyz
   end
   begin
      id 14
      name LeftHand_dum2
      direction 1.000000 0.000000 0.000000
      length 3.937000
      axis 0.0 0.0 -90.0 xyz
   end
   begin
      id 15
      name LeftHandThumb1
      direction 0.000000 0.000000 1.000000
      length 3.937000
      axis 0.0 0.0 -90.0 xyz
      dof rx rz ry
   end
   begin
      id 16
      name RightShoulder
      direction -1.000000 0.000000 0.000000
      length 6.996006
      axis 0.0 0.0 90.0 xyz
      dof rx ry rz
   end
   begin
      id 17
      name RightArm
      direction -1.000000 0.000000 0.000000
      length 10.209302
      axis 0.0 0.0 90.0 xyz
      dof rx ry rz
   end
   begin
      id 18
      name RightForeArm
      direction -1.000000 0.000000 0.000000
      length 8.563163
      axis 0.0 0.0 90.0 xyz
      dof ry rz rx
   end
   begin
      id 19
      name RightHand
      direction 0.000000 0.000000 0.000000
      length 0.000000
      axis 0.0 0.0 90.0 xyz
      dof rx ry rz
   end
   begin
      id 20
      name RightHand_dum1
      direction 0.000000 0.000000 0.000000
      length 0.000000
      axis 0.0 0.0 90.0 xyz
   end
   begin
      id 21
      name RightHand_dum2
      direction -1.000000 0.000000 0.000000
      length 3.937000
      axis 0.0 0.0 90.0 xyz
   end
   begin
      id 22
      name RightHandThumb1
      direction 0.000000 0.000000 1.000000
      length 3.937000
      axis 0.0 0.0 90.0 xyz
      dof rx rz ry
   end
   begin
      id 23
      name LeftUpLeg
      direction 0.000000 -1.000000 0.000000
      length 16.346831
      axis 0.0 0.0 0.0 xyz
      dof rx ry rz
   end
   begin
      id 24
      name LeftLeg
      direction 0.000000 -1.000000 0.000000
      length 13.959795
      axis 0.0 0.0 0.0 xyz
      dof rx ry rz
   end
   begin
      id 25
      name LeftFoot
      direction 0.000000 -0.258819 0.965926
      length 5.165550
      axis 15.0 0.0 0.0 xyz
      dof rx ry rz
   end
   begin
      id 26
      name LeftToeBase
      direction 0.000000 0.000000 1.000000
      length 2.952750
      axis 0.0 0.0 0.0 xyz
      dof rx ry rz
   end
   begin
      id 27
      name RightUpLeg
      direction 0.000000 -1.000000 0.000000
      length 16.346831
      axis 0.0 0.0 0.0 xyz
      dof rx ry rz
   end
   begin
      id 28
      name RightLeg
      direction 0.000000 -1.000000 0.000000
      length 13.959795
      axis 0.0 0.0 0.0 xyz
      dof rx ry rz
   end
   begin
      id 29
      name RightFoot
      direction 0.000000 -0.258819 0.965926
      length 5.165550
      axis 15.0 0.0 0.0 xyz
      dof rx ry rz
   end
   begin
      id 30
      name RightToeBase
      direction 0.000000 0.000000 1.000000
      length 2.952750
      axis 0.0 0.0 0.0 xyz
      dof rx ry rz
   end
:hierarchy
   begin
      root Spine_dum LeftUpLeg_dum RightUpLeg_dum
      Spine_dum Spine
      LeftUpLeg_dum LeftUpLeg
      RightUpLeg_dum RightUpLeg
      Spine Spine_dum1 Spine_dum2 Spine_dum3
      Spine_dum1 Head
      Spine_dum2 LeftShoulder
      Spine_dum3 RightShoulder
      LeftShoulder LeftArm
      LeftArm LeftForeArm
      LeftForeArm LeftHand
      LeftHand LeftHand_dum1 LeftHand_dum2
      LeftHand_dum1 LeftHandThumb1
      RightShoulder RightArm
      RightArm RightForeArm
      RightForeArm RightHand
      RightHand RightHand_dum1 RightHand_dum2
      RightHand_dum1 RightHandThumb1
      LeftUpLeg LeftLeg
      LeftLeg LeftFoot
      LeftFoot LeftToeBase
      RightUpLeg RightLeg
      RightLeg RightFoot
      RightFoot RightToeBase
   end

# File created by Blade
# Date/Time:  Tue Jan 27 18:50:05 2015
# Frame Rate: 120.000 fps
#------------------------------------------------------
:FULLY-SPECIFIED
:DEGREES
779
root -2.620098 32.619324 -5.109561 -31.525838 57.337272 -36.582925
Spine 10.316753 -18.340886 2.958591
Head 8.358752 -5.403706 19.313857
LeftShoulder -5.983599 4.969833 20.716275
LeftArm 32.234341 -12.326939 -70.302635
LeftForeArm -9.407081 -0.000000 101.100247
LeftHand -9.731641 -0.000000 16.360720
LeftHandThumb1 -26.253704 0.000000 33.147579
RightShoulder -12.356762 -1.233171 -6.153605
RightArm 20.144644 -39.117380 64.613110
RightForeArm -28.545025 0.000000 27.937873
RightHand -12.788439 -0.000000 13.250957
RightHandThumb1 -24.326973 -0.000000 -32.862282
LeftUpLeg -8.804996 -10.482169 15.280986
LeftLeg 27.811519 -0.000000 -0.000000
LeftFoot -20.038161 -9.539978 -23.185468
LeftToeBase 16.843490 -0.000000 -0.000000
RightUpLeg -80.499511 9.616735 -7.453307
RightLeg 111.469815 -0.000000 -0.000000
RightFoot -13.401234 -15.269576 0.262797
RightToeBase 5.632913 -0.000000 -0.000000
780
root -2.615293 32.616470 -5.126142 -31.116822 57.151771 -36.150806
Spine 10.289463 -18.276965 2.862073
Head 8.471158 -5.297014 19.225432
LeftShoulder -6.043203 5.009292 20.694855
LeftArm 32.127078 -12.420405 -70.318732
LeftForeArm -9.246666 -0.000000 101.151520
LeftHand -9.733802 -0.000000 16.684827
LeftHandThumb1 -26.253704 0.000000 33.147579
RightShoulder -12.274674 -1.006544 -6.226024
RightArm 19.902457 -39.247688 64.817701
RightForeArm -28.515875 -0.000000 27.949293
RightHand -12.799017 -0.000000 13.211328
RightHandThumb1 -24.326973 -0.000000 -32.862282
LeftUpLeg -8.743824 -10.332620 15.139622
LeftLeg 27.786384 -0.000000 -0.000000
LeftFoot -20.014010 -9.472042 -23.148941
LeftToeBase 16.644846 -0.000000 -0.000000
RightUpLeg -80.525938 9.749744 -7.376223
RightLeg 111.471819 -0.000000 -0.000000
RightFoot -13.368634 -15.193022 0.478467
RightToeBase 5.821055 -0.000000 -0.000000
781
root -2.612156 32.613292 -5.143992 -30.766004 56.991897 -35.786982
Spine 10.274409 -18.272975 2.784784
Head 8.550633 -5.115504 19.200685
LeftShoulder -6.138486 5.132917 20.644166
LeftArm 32.104503 -12.522861 -70.380527
LeftForeArm -9.071185 -0.000000 101.246054
LeftHand -9.773639 0.000000 16.860233
LeftHandThumb1 -26.253704 0.000000 33.147579
RightShoulder -12.200856 -0.947216 -6.288569
RightArm 19.830150 -39.280169 64.947609
RightForeArm -28.656307 -0.000000 27.991893
RightHand -12.696011 -0.000000 13.061226
RightHandThumb1 -24.326973 -0.000000 -32.862282
LeftUpLeg -8.699501 -10.214680 15.018632
LeftLeg 27.764540 -0.000000 -0.000000
LeftFoot -20.009324 -9.436104 -23.199048
LeftToeBase 16.649712 -0.000000 -0.000000
RightUpLeg -80.534002 9.846958 -7.289326
RightLeg 111.401969 -0.000000 -0.000000
RightFoot -13.267960 -15.132616 0.792470
RightToeBase 5.777588 -0.000000 -0.000000
782
root -2.609565 32.609326 -5.163676 -30.438287 56.850084 -35.438983
Spine 10.284850 -18.262446 2.691428
Head 8.575826 -5.012018 19.173807
LeftShoulder -6.275084 5.284949 20.636243
LeftArm 32.018023 -12.476348 -70.391888
LeftForeArm -8.946420 -0.000000 101.372351
LeftHand -9.459079 -0.000000 17.151894
LeftHandThumb1 -26.253704 0.000000 33.147579
RightShoulder -12.168918 -1.033710 -6.305181
RightArm 19.930883 -39.200065 64.972066
RightForeArm -28.630170 -0.000000 28.063012
RightHand -12.661576 -0.000000 13.025634
RightHandThumb1 -24.326973 -0.000000 -32.862282
LeftUpLeg -8.638341 -10.113261 14.890575
LeftLeg 27.707266 -0.000000 -0.000000
LeftFoot -20.013778 -9.377746 -23.183004
LeftToeBase 16.551758 -0.000000 -0.000000
RightUpLeg -80.518209 9.905141 -7.189166
RightLeg 111.296133 -0.000000 -0.000000
RightFoot -13.089915 -15.076995 0.810660
RightToeBase 5.845727 -0.000000 -0.000000
